# xmcd CD database file
#
# Track frame offsets:
#	150
#	12259
#	37300
#	39183
#	52246
#	64021
#	89313
#	101032
#	111672
#	127360
#	151772
#	165911
#	198398
#
# Disc length: 2824 seconds
#
# Revision: 0
# Processed by: cddbd v1.5.2PL0 Copyright (c) Steve Scherf et al.
# Submitted via: CDex 1.51
#
DISCID=b40b060d
DTITLE=boombox casserole - assembly of shapes
DYEAR=2007
DGENRE=Jazz
TTITLE0=Square
TTITLE1=Ocotgon
TTITLE2=This is Boombox Casserole
TTITLE3=Undecagon
TTITLE4=Trapezoid
TTITLE5=Parallelogram
TTITLE6=Trans-Rhombus
TTITLE7=Elipsoid
TTITLE8=Star
TTITLE9=Hexagon
TTITLE10=Line
TTITLE11=Realeaux Polygon
TTITLE12=Billie's Stain Resistant Cotton Khakis
EXTD=YEAR: 2007
EXTT0=
EXTT1=
EXTT2=
EXTT3=
EXTT4=
EXTT5=
EXTT6=
EXTT7=
EXTT8=
EXTT9=
EXTT10=
EXTT11=
EXTT12=
PLAYORDER=
